# xmcd CD database file
#
# Track frame offsets:
#	182
#	13785
#	26750
#	38680
#	51610
#	66285
#	79375
#	92040
#	103925
#	115330
#	128085
#	139777
#	153175
#	166670
#	179372
#	191685
#	204615
#	218542
#
# Disc length: 3081 seconds
#
# Revision: 1
# Processed by: cddbd v1.5.1PL0 Copyright (c) Steve Scherf et al.
# Submitted via: CDex 1.51
#
DISCID=fe0c0712
DTITLE=Big Bill Broonzy - Just a Dream
DYEAR=1995
DGENRE=Blues
TTITLE0=Big Bill Blues
TTITLE1=You Do Me Any Old Way
TTITLE2=Trucking Little Woman
TTITLE3=Bull Cow Blues
TTITLE4=Southern Flood Blues
TTITLE5=New Shake Em On Down
TTITLE6=Night Time Is The Right Time
TTITLE7=Trouble And Lying Woman
TTITLE8=Baby I Done Got Wise
TTITLE9=Just A Dream
TTITLE10=Oh Yes
TTITLE11=Medicine Man Blues
TTITLE12=Looking Up And Down
TTITLE13=WPA Rag
TTITLE14=Hattie Blues
TTITLE15=Too Too Train Blues
TTITLE16=Worrying You Off My Mind
TTITLE17=Long Tall Mama
EXTD=YEAR: 1995
EXTT0=
EXTT1=
EXTT2=
EXTT3=
EXTT4=
EXTT5=
EXTT6=
EXTT7=
EXTT8=
EXTT9=
EXTT10=
EXTT11=
EXTT12=
EXTT13=
EXTT14=
EXTT15=
EXTT16=
EXTT17=
PLAYORDER=
